<svg width="118" height="18" viewBox="0 0 118 18" fill="none" xmlns="http://www.w3.org/2000/svg">
<path d="M7.7395 17.345C8.87417 17.345 9.936 17.1533 10.925 16.77C11.914 16.3867 12.7113 15.8117 13.317 15.045C13.9303 14.2783 14.237 13.3238 14.237 12.1815C14.237 11.3612 14.0837 10.6827 13.777 10.146C13.478 9.60167 13.0908 9.16467 12.6155 8.835C12.1478 8.50533 11.661 8.2485 11.155 8.0645C10.6567 7.8805 10.2043 7.73483 9.798 7.6275L6.831 6.7995C6.463 6.69983 6.095 6.57717 5.727 6.4315C5.359 6.27817 5.05233 6.075 4.807 5.822C4.56167 5.56133 4.439 5.22783 4.439 4.8215C4.439 4.39217 4.58083 4.0165 4.8645 3.6945C5.15583 3.3725 5.53533 3.12333 6.003 2.947C6.47833 2.77067 6.992 2.69017 7.544 2.7055C8.395 2.7285 9.16167 2.97767 9.844 3.453C10.5263 3.92833 10.9557 4.603 11.132 5.477L14.1105 4.9595C13.7425 3.42617 12.9873 2.24167 11.845 1.406C10.7027 0.562666 9.2805 0.133333 7.5785 0.117999C6.45917 0.110332 5.4395 0.290499 4.5195 0.658499C3.60717 1.01883 2.87883 1.55933 2.3345 2.28C1.79783 3.00067 1.5295 3.89383 1.5295 4.9595C1.5295 5.68783 1.64833 6.30117 1.886 6.7995C2.13133 7.29017 2.44183 7.69267 2.8175 8.007C3.20083 8.32133 3.60333 8.5705 4.025 8.7545C4.45433 8.9385 4.853 9.08417 5.221 9.1915L9.499 10.4565C10.7257 10.8245 11.339 11.4608 11.339 12.3655C11.339 12.8715 11.1742 13.3047 10.8445 13.665C10.5225 14.0177 10.1008 14.286 9.5795 14.47C9.05817 14.654 8.50233 14.746 7.912 14.746C6.91533 14.746 6.03367 14.4777 5.267 13.941C4.508 13.4043 4.00583 12.6453 3.7605 11.664L0.8855 12.101C1.06183 13.182 1.4605 14.1173 2.0815 14.907C2.71017 15.689 3.5075 16.2908 4.4735 16.7125C5.44717 17.1342 6.53583 17.345 7.7395 17.345ZM24.0057 17V14.677C23.2314 14.792 22.5414 14.8227 21.9357 14.769C21.33 14.7153 20.8892 14.4585 20.6132 13.9985C20.4675 13.7608 20.387 13.4542 20.3717 13.0785C20.364 12.6952 20.3602 12.2582 20.3602 11.7675V6.7535H24.0057V4.58H20.3602V1.13H17.6002V4.58H15.3462V6.7535H17.6002V11.9285C17.6002 12.6415 17.6079 13.2778 17.6232 13.8375C17.6385 14.3895 17.788 14.9338 18.0717 15.4705C18.3937 16.0608 18.8652 16.494 19.4862 16.77C20.1072 17.0383 20.8087 17.1802 21.5907 17.1955C22.3804 17.2185 23.1854 17.1533 24.0057 17ZM30.1494 17.345C31.1384 17.345 31.9779 17.184 32.6679 16.862C33.3656 16.5323 33.9789 16.0225 34.5079 15.3325V17H36.9344V9.3755C36.9344 8.83883 36.9114 8.34433 36.8654 7.892C36.8194 7.432 36.6852 6.9835 36.4629 6.5465C36.0566 5.72617 35.4317 5.13583 34.5884 4.7755C33.7527 4.41517 32.7829 4.235 31.6789 4.235C30.2222 4.235 29.0607 4.55317 28.1944 5.1895C27.3281 5.82583 26.7416 6.66917 26.4349 7.7195L28.9649 8.513C29.1719 7.87667 29.5361 7.42817 30.0574 7.1675C30.5787 6.90683 31.1192 6.7765 31.6789 6.7765C32.5222 6.7765 33.1432 6.949 33.5419 7.294C33.9406 7.63133 34.1667 8.1565 34.2204 8.8695C33.1317 9.0305 32.1197 9.18767 31.1844 9.341C30.2567 9.48667 29.4671 9.66683 28.8154 9.8815C27.8341 10.2188 27.1172 10.698 26.6649 11.319C26.2126 11.9323 25.9864 12.6913 25.9864 13.596C25.9864 14.2783 26.1436 14.9032 26.4579 15.4705C26.7799 16.0378 27.2514 16.494 27.8724 16.839C28.4934 17.1763 29.2524 17.345 30.1494 17.345ZM30.7014 15.137C30.0497 15.137 29.5514 14.9875 29.2064 14.6885C28.8691 14.3895 28.7004 14.0138 28.7004 13.5615C28.7004 13.1552 28.8307 12.8255 29.0914 12.5725C29.3597 12.3195 29.7316 12.1048 30.2069 11.9285C30.6439 11.7828 31.1691 11.6563 31.7824 11.549C32.3957 11.434 33.1969 11.2998 34.1859 11.1465C34.1782 11.4378 34.1591 11.7637 34.1284 12.124C34.0977 12.4767 34.0249 12.7948 33.9099 13.0785C33.8179 13.3622 33.6377 13.665 33.3694 13.987C33.1087 14.309 32.7561 14.5812 32.3114 14.8035C31.8667 15.0258 31.3301 15.137 30.7014 15.137ZM39.9284 17H42.7114V10.6865C42.7114 9.96583 42.8417 9.32567 43.1024 8.766C43.3707 8.20633 43.7885 7.77317 44.3559 7.4665C44.7392 7.24417 45.1685 7.11383 45.6439 7.0755C46.1192 7.0295 46.5447 7.06017 46.9204 7.1675V4.58C46.3607 4.49567 45.7857 4.50717 45.1954 4.6145C44.605 4.71417 44.0799 4.92117 43.6199 5.2355C43.3592 5.3965 43.1254 5.592 42.9184 5.822C42.7114 6.04433 42.5312 6.2935 42.3779 6.5695V4.58H39.9284V17Z" fill="black"/>
</svg>
